<?xml version="1.0" standalone="no"?>
<!DOCTYPE svg PUBLIC "-//W3C//DTD SVG 1.1//EN" "http://www.w3.org/Graphics/SVG/1.1/DTD/svg11.dtd">
<svg version="1.1" xmlns="http://www.w3.org/2000/svg" viewBox="0 0 144.8148318108382 166.40278960732394" width="120" height="120"><!-- svg-source:excalidraw --><metadata></metadata><defs><style class="style-fonts">
      </style></defs><g stroke-linecap="round" transform="translate(10 23.521880557542318) rotate(0 62.4074159054191 66.44045452489081)"><path d="M0.61 -1.19 L126.71 -2.35 L122.49 132.81 L1.25 134.22" stroke="none" stroke-width="0" fill="#ffffff"></path><path d="M-1.64 -0.09 C41.73 -3.44, 82.62 0.15, 124.67 0.86 M1.97 1.95 C38.27 -3.6, 74.76 -0.06, 125.93 -1.85 M126.59 1.3 C127.79 43.13, 123.73 85.29, 121.72 132.69 M124.27 1.07 C123.72 33.56, 121.81 64.28, 123.04 130.94 M121.75 136.5 C87.22 131.8, 57.29 128.45, -3.92 134.24 M124.55 133.38 C87.48 135.07, 49.2 134.03, -0.56 134.86 M-2.09 134.2 C0.71 106.09, 2.57 76.47, -0.44 -0.93 M-1.6 133.17 C0.56 104.67, 3.11 80.75, 1.37 -0.1" stroke="#1e1e1e" stroke-width="2" fill="none"></path></g><g stroke-linecap="round" transform="translate(36.706311927410866 10) rotate(0 35.58936197060575 13.13492359128577)"><path d="M-1.11 -3.85 L72.14 2.35 L70.28 28.81 L-0.79 26.51" stroke="none" stroke-width="0" fill="#ffffff"></path><path d="M0.52 2.83 C13.08 -3.06, 33.18 1.15, 75.18 3.6 M-0.05 1.06 C19.3 -1.27, 42.76 -2.5, 71.59 -1.91 M72.36 3.12 C70.9 6.07, 70.43 9.13, 68.83 27.62 M69.89 1.56 C72.98 7.15, 71.15 11.85, 70.58 27.22 M72.43 27.61 C54.54 29.52, 39.26 24.69, 1.17 26.78 M70.41 28.11 C52.46 23.86, 32.28 24.41, -0.19 24.91 M-2.45 27.17 C-1.13 12.66, 3.05 7.36, 2.11 -0.4 M-1.01 25.38 C1.37 21.15, -1.2 15.18, 0.22 1.82" stroke="#1e1e1e" stroke-width="2" fill="none"></path></g><g stroke-linecap="round" transform="translate(37.0479080946335 10.573000022435735) rotate(0 34.793222516352444 12.11013508961696)"><path d="M-2.12 3.55 L67.99 -0.64 L68.25 20.28 L-1.89 21.28" stroke="none" stroke-width="0" fill="#fd7e14"></path><path d="M-1.4 1.58 C25.51 -2.96, 52.02 -1.04, 68.33 1.18 M-1.79 -0.87 C16.97 -0.19, 33.06 0.53, 68.93 -1.62 M70.8 -2.82 C69.34 6.88, 65.78 14.57, 67.11 24.13 M68.74 -1.18 C70.79 4.84, 70.72 10.9, 68.84 25.06 M68.01 25.35 C43.3 22.61, 15.33 28.8, 2.69 24.88 M68.77 22.71 C43.13 22.21, 17.54 23.42, 1.47 25.66 M3.75 27.04 C3.87 18.65, 3.07 7.64, 3.61 0.14 M-1.73 25.94 C0.63 15.6, -1.74 5.95, -0.96 -0.45" stroke="#1e1e1e" stroke-width="2" fill="none"></path></g><g stroke-linecap="round" transform="translate(64.17763394684732 13.506714148214087) rotate(0 7.873240692931972 8.132192626148026)"><path d="M4.78 1.29 C6.32 0.66, 8.17 0.21, 9.73 0.6 C11.3 1, 13.16 2.39, 14.17 3.68 C15.17 4.96, 16 6.56, 15.76 8.32 C15.52 10.09, 13.93 12.92, 12.74 14.28 C11.56 15.63, 10.23 16.3, 8.65 16.44 C7.08 16.59, 4.72 16.09, 3.28 15.13 C1.84 14.17, 0.54 12.48, 0.02 10.67 C-0.51 8.87, -0.68 5.91, 0.14 4.3 C0.95 2.68, 4.19 1.55, 4.9 0.99 C5.62 0.43, 4.56 1.01, 4.45 0.93 M3.55 1.45 C4.99 0.65, 8.52 0.99, 10.54 1.42 C12.57 1.86, 14.75 2.69, 15.71 4.05 C16.67 5.41, 16.52 7.9, 16.28 9.58 C16.04 11.26, 15.42 12.82, 14.27 14.11 C13.11 15.41, 10.97 17.4, 9.34 17.35 C7.7 17.3, 5.94 15.22, 4.45 13.83 C2.96 12.43, 1 10.29, 0.4 8.96 C-0.21 7.63, 0.18 7.03, 0.82 5.83 C1.45 4.63, 3.53 2.46, 4.19 1.76 C4.86 1.06, 4.43 1.72, 4.83 1.63" stroke="none" stroke-width="0" fill="#1e1e1e"></path><path d="M5.17 -0.23 C6.7 -0.88, 10.23 -0.56, 11.93 0.4 C13.64 1.35, 14.77 3.8, 15.4 5.48 C16.02 7.17, 16.19 8.99, 15.67 10.51 C15.14 12.03, 13.77 13.72, 12.24 14.62 C10.71 15.52, 8.13 16.09, 6.47 15.91 C4.8 15.73, 3.44 14.85, 2.26 13.55 C1.08 12.25, -0.54 9.67, -0.63 8.1 C-0.73 6.53, 0.61 5.3, 1.7 4.11 C2.8 2.93, 4.89 1.52, 5.93 0.96 C6.98 0.4, 7.84 0.61, 7.97 0.75 M8.07 0.69 C9.56 0.42, 10.14 1.3, 11.3 2 C12.46 2.69, 14.59 3.48, 15.05 4.85 C15.5 6.22, 14.37 8.32, 14.02 10.22 C13.68 12.13, 14.1 15.12, 12.96 16.28 C11.83 17.43, 8.85 17.86, 7.22 17.15 C5.58 16.44, 4.25 13.4, 3.14 12.01 C2.02 10.63, 0.92 10.52, 0.53 8.83 C0.13 7.13, -0.49 3.13, 0.79 1.83 C2.07 0.52, 7.13 1.45, 8.2 0.99 C9.27 0.52, 7.43 -1.07, 7.22 -0.98" stroke="#1e1e1e" stroke-width="2" fill="none"></path></g><g stroke-linecap="round"><g transform="translate(22.127494280705378 60.28096790689597) rotate(0 47.59616642454466 1.1281557393594994)"><path d="M3.14 3.42 C38.93 3.23, 71.6 -0.68, 95.56 1.7 M-0.37 0.2 C22.9 -1.38, 46.94 -2.22, 94.78 1.3" stroke="#1e1e1e" stroke-width="2" fill="none"></path></g></g><mask></mask><g stroke-linecap="round"><g transform="translate(25.789518061580793 77.86189435666165) rotate(0 38.14737935867481 -0.8746823032015527)"><path d="M-2.89 -3.72 C18.06 -0.93, 37.66 -0.64, 75.45 1.1 M1.13 -0.67 C20.99 3.37, 43.06 2.56, 79.19 -1.66" stroke="#1e1e1e" stroke-width="2" fill="none"></path></g></g><mask></mask><g stroke-linecap="round"><g transform="translate(30.042605329895537 98.90568189045007) rotate(0 42.73833048346029 0.23718637503770879)"><path d="M2.8 0.94 C27.67 -1.2, 59.52 -1.47, 79.12 -0.47 M1.23 1.22 C31.71 0.14, 60.87 -2.01, 84.25 1.5" stroke="#1e1e1e" stroke-width="2" fill="none"></path></g></g><mask></mask><g stroke-linecap="round"><g transform="translate(30.412020009545245 113.70796748893918) rotate(0 42.30042515511201 1.2321089617908)"><path d="M-1.63 -1.27 C19.2 3.3, 41.74 3.42, 86.24 3.73 M0.23 0.48 C28.26 0.2, 56.78 0.27, 81.63 1.94" stroke="#1e1e1e" stroke-width="2" fill="none"></path></g></g><mask></mask><g stroke-linecap="round"><g transform="translate(32.04065690156608 131.10579274965858) rotate(0 41.57499756293879 -1.0851681409403682)"><path d="M1.79 -3.33 C30.64 1.8, 51.31 0.58, 81.56 -1.15 M0.51 1.16 C21.27 -0.25, 41.16 -3.04, 82.64 -0.92" stroke="#1e1e1e" stroke-width="2" fill="none"></path></g></g><mask></mask></svg>